<svg width="393" height="405" viewBox="0 0 393 405" fill="none" xmlns="http://www.w3.org/2000/svg">
<rect y="189" width="393" height="216" fill="#AA6B27"/>
<ellipse cx="301.5" cy="244.5" rx="78.5" ry="12.5" fill="#91581A"/>
<rect y="151" width="393" height="38" fill="#9FD474"/>
<path d="M258.588 33.4431C252.403 22.4614 259.231 7.7204 271.834 7.7204C276.164 7.7204 280.314 9.58737 283.023 12.9653C298.275 31.9807 303.43 46.8182 304.337 67.9589C304.743 77.4112 296.815 84.9245 287.354 84.9245C277.127 84.9245 269.355 76.1746 268.587 65.9761C267.698 54.1728 264.606 44.1297 258.588 33.4431Z" fill="#F7B2CF"/>
<path d="M298.241 25.8055C292.191 14.5691 299.44 0 312.201 0C317.012 0 321.592 2.21317 324.391 6.12565C339.891 27.7856 344.871 44.6249 345.576 69.1352C345.849 78.641 337.935 86.2113 328.425 86.2113C318.228 86.2113 310.378 77.5435 309.894 67.3573C309.17 52.0779 305.641 39.5488 298.241 25.8055Z" fill="#F7B2CF"/>
<path d="M253.021 95.2183C253.021 66.7926 276.065 43.749 304.491 43.749H305.778C334.203 43.749 357.247 66.7926 357.247 95.2184V163.415C357.247 187.577 337.66 207.164 313.498 207.164H296.77C272.608 207.164 253.021 187.577 253.021 163.415V95.2183Z" fill="#F7B2CF"/>
<circle cx="281.775" cy="89.2301" r="9.45255" fill="white"/>
<circle cx="281.425" cy="89.5802" r="4.90132" fill="black"/>
<circle cx="321.664" cy="89.2301" r="9.45255" fill="white"/>
<circle cx="321.314" cy="89.5802" r="4.90132" fill="black"/>
<path d="M295.484 118.166C295.484 113.593 300.824 111.053 304.833 113.254C312.951 117.712 319.421 117.626 326.933 113.48C330.965 111.256 336.367 113.767 336.367 118.372C336.367 120.358 335.29 122.202 333.514 123.091C321.152 129.281 312.596 129.27 298.591 123.034C296.678 122.182 295.484 120.26 295.484 118.166Z" fill="#0A0200"/>
<path fill-rule="evenodd" clip-rule="evenodd" d="M335.007 121.954C334.591 122.415 334.089 122.803 333.514 123.091C327.545 126.08 322.464 127.623 317.228 127.718C317.204 127.441 317.192 127.162 317.192 126.879C317.192 121.584 321.484 117.291 326.779 117.291C330.274 117.291 333.331 119.161 335.007 121.954Z" fill="#BF8C89"/>
<circle cx="302.561" cy="101.009" r="5.79031" fill="#221B1B"/>
<path d="M336.164 185.54V228.952H351.568" stroke="#F7B2CF" stroke-width="35.0095" stroke-linecap="round"/>
<path d="M276.193 185.54V228.952H260.789" stroke="#F7B2CF" stroke-width="35.0095" stroke-linecap="round"/>
<circle cx="237.581" cy="122.24" r="11.5806" fill="#F7B2CF"/>
<circle cx="373.974" cy="145.401" r="11.5806" fill="#F7B2CF"/>
<ellipse cx="89.5" cy="331" rx="46.5" ry="16" fill="#91581A"/>
<path d="M65 317.842C65 304.674 75.8323 294 89 294C102.168 294 113 304.674 113 317.842V330C113 335.523 108.523 340 103 340H75C69.4772 340 65 335.523 65 330V317.842Z" fill="#FCA112"/>
<path d="M99.205 291.95C94.5639 299.867 83.0931 299.79 78.5575 291.813L68.3525 273.863C63.817 265.885 69.6183 255.989 78.795 256.05L99.4425 256.187C108.619 256.248 114.289 266.22 109.648 274.137L99.205 291.95Z" fill="#7CA65A"/>
<line x1="84" y1="317.5" x2="113" y2="317.5" stroke="#D0830A" stroke-width="5"/>
<line x1="84" y1="328.5" x2="113" y2="328.5" stroke="#D0830A" stroke-width="5"/>
<ellipse cx="221.5" cy="360" rx="46.5" ry="16" fill="#91581A"/>
<path d="M197 346.842C197 333.674 207.832 323 221 323C234.168 323 245 333.674 245 346.842V359C245 364.523 240.523 369 235 369H207C201.477 369 197 364.523 197 359V346.842Z" fill="#FCA112"/>
<path d="M231.205 320.95C226.564 328.867 215.093 328.79 210.558 320.813L200.353 302.863C195.817 294.885 201.618 284.989 210.795 285.05L231.443 285.187C240.619 285.248 246.289 295.22 241.648 303.137L231.205 320.95Z" fill="#7CA65A"/>
<line x1="216" y1="346.5" x2="245" y2="346.5" stroke="#D0830A" stroke-width="5"/>
<line x1="216" y1="357.5" x2="245" y2="357.5" stroke="#D0830A" stroke-width="5"/>
<ellipse cx="347.5" cy="313" rx="46.5" ry="16" fill="#91581A"/>
<path d="M323 299.842C323 286.674 333.832 276 347 276C360.168 276 371 286.674 371 299.842V312C371 317.523 366.523 322 361 322H333C327.477 322 323 317.523 323 312V299.842Z" fill="#FCA112"/>
<path d="M357.205 273.95C352.564 281.867 341.093 281.79 336.558 273.813L326.353 255.863C321.817 247.885 327.618 237.989 336.795 238.05L357.443 238.187C366.619 238.248 372.289 248.22 367.648 256.137L357.205 273.95Z" fill="#7CA65A"/>
<line x1="342" y1="299.5" x2="371" y2="299.5" stroke="#D0830A" stroke-width="5"/>
<line x1="342" y1="310.5" x2="371" y2="310.5" stroke="#D0830A" stroke-width="5"/>
<line x1="225.795" y1="90.8738" x2="243.645" y2="143.29" stroke="#86BB14" stroke-width="3.69149" stroke-linecap="round"/>
<path d="M216.507 73.3442C216.457 69.7685 221.011 68.2175 223.154 71.0807L225.452 74.1529C226.41 75.4333 228.084 75.9512 229.598 75.4357L233.23 74.1989C236.615 73.0461 239.498 76.8986 237.437 79.8209L235.225 82.9564C234.304 84.2633 234.328 86.0151 235.286 87.2956L237.585 90.3677C239.727 93.2309 236.954 97.1629 233.538 96.1058L229.873 94.9715C228.345 94.4988 226.686 95.0635 225.765 96.3704L223.553 99.5059C221.492 102.428 216.896 101.006 216.845 97.4302L216.792 93.5937C216.769 91.9946 215.719 90.5919 214.192 90.1191L210.526 88.9849C207.11 87.9277 207.042 83.1167 210.428 81.9639L214.06 80.7271C215.574 80.2115 216.583 78.7798 216.561 77.1807L216.507 73.3442Z" fill="#EDC2C3"/>
<path d="M225.195 70.418C227.072 67.6587 231.384 68.9141 231.487 72.2502L231.634 77.021C231.68 78.5129 232.681 79.8056 234.114 80.2229L238.697 81.5573C241.902 82.4903 242.04 86.979 238.899 88.1077L234.407 89.7218C233.003 90.2266 232.083 91.5785 232.129 93.0704L232.276 97.8412C232.379 101.177 228.152 102.696 226.108 100.057L223.185 96.2842C222.271 95.1043 220.701 94.6471 219.296 95.1519L214.804 96.7661C211.663 97.8948 208.913 94.3448 210.791 91.5854L213.476 87.6392C214.316 86.4052 214.265 84.7708 213.351 83.5909L210.428 79.8176C208.384 77.1791 210.91 73.4664 214.115 74.3995L218.698 75.7339C220.131 76.1512 221.67 75.5982 222.509 74.3642L225.195 70.418Z" fill="#EDC2C3"/>
<circle cx="224.28" cy="85.28" r="3.69149" transform="rotate(-18.8055 224.28 85.28)" fill="#A67273"/>
</svg>
