<svg width="169" height="96" viewBox="0 0 169 96" fill="none" xmlns="http://www.w3.org/2000/svg">
<path d="M74.5703 63.5931L45.0473 63.5932L40.5703 25.6067L28.0703 18.1067" stroke="#EAA5C2" stroke-width="18.1142" stroke-linecap="round"/>
<ellipse cx="87.5" cy="87.5" rx="81.5" ry="8.5" fill="#E7E7E7"/>
<path d="M157.272 70.2827C160.005 70.3148 162.096 72.5525 161.944 75.2806L161.656 80.4375L132.666 80.0966L132.953 74.9397C133.106 72.2116 135.444 70.0261 138.176 70.0582L157.272 70.2827Z" fill="#CBCBCB"/>
<path d="M161.554 82.2732L161.266 87.4301C161.114 90.1582 158.776 92.3437 156.043 92.3116L136.947 92.0871C134.215 92.055 132.123 89.8173 132.276 87.0892L132.563 81.9323L161.554 82.2732Z" fill="#CBCBCB"/>
<line x1="1" y1="-1" x2="5.89474" y2="-1" transform="matrix(-0.0557013 0.998447 -0.999931 -0.0117571 154.454 84.0267)" stroke="#939393" stroke-width="2" stroke-linecap="round"/>
<line x1="1" y1="-1" x2="5.89474" y2="-1" transform="matrix(-0.0557013 0.998447 -0.999931 -0.0117571 144.457 83.9091)" stroke="#939393" stroke-width="2" stroke-linecap="round"/>
<line x1="1" y1="-1" x2="5.89474" y2="-1" transform="matrix(-0.0557013 0.998447 -0.999931 -0.0117571 149.455 83.9679)" stroke="#939393" stroke-width="2" stroke-linecap="round"/>
<line x1="1" y1="-1" x2="5.89474" y2="-1" transform="matrix(-0.0557013 0.998447 -0.999931 -0.0117571 155.119 72.0943)" stroke="#939393" stroke-width="2" stroke-linecap="round"/>
<line x1="1" y1="-1" x2="5.89474" y2="-1" transform="matrix(-0.0557013 0.998447 -0.999931 -0.0117571 145.122 71.9768)" stroke="#939393" stroke-width="2" stroke-linecap="round"/>
<line x1="1" y1="-1" x2="5.89474" y2="-1" transform="matrix(-0.0557013 0.998447 -0.999931 -0.0117571 150.121 72.0356)" stroke="#939393" stroke-width="2" stroke-linecap="round"/>
<rect width="1.8386" height="28.9925" rx="0.919299" transform="matrix(-0.0557013 0.998447 -0.999931 -0.0117571 161.656 80.4374)" fill="#939393"/>
<path d="M70.5377 17.3037C67.3377 11.6217 70.8704 3.9946 77.3915 3.9946C79.632 3.9946 81.779 4.96059 83.1808 6.70835C91.0722 16.547 93.7394 24.2241 94.2089 35.1625C94.4189 40.0531 90.3168 43.9406 85.4216 43.9406C80.1299 43.9406 76.1086 39.4133 75.7113 34.1366C75.2515 28.0294 73.6516 22.8331 70.5377 17.3037Z" fill="#F7B2CF"/>
<path d="M91.0548 13.352C87.9244 7.53814 91.6748 0 98.2778 0C100.767 0 103.136 1.14511 104.585 3.16946C112.605 14.3765 115.182 23.0893 115.546 35.7711C115.687 40.6894 111.593 44.6064 106.672 44.6064C101.396 44.6064 97.3343 40.1216 97.0843 34.8512C96.7092 26.9455 94.8835 20.4629 91.0548 13.352Z" fill="#F7B2CF"/>
<path d="M67.6307 85.9271C52.923 85.9271 41 74.0041 41 59.2964V58.6306C41 43.9229 52.923 32 67.6307 32L102.916 32C115.418 32 125.552 42.1345 125.552 54.6361V63.291C125.552 75.7926 115.418 85.9271 102.916 85.9271H67.6307Z" fill="#F7B2CF"/>
<circle cx="108.497" cy="50.1684" r="4.89082" fill="white"/>
<circle cx="108.316" cy="50.3495" r="2.53598" fill="black"/>
<path d="M105 64.8815C105 62.5151 107.763 61.201 109.838 62.3399C114.038 64.6463 117.385 64.6017 121.272 62.4569C123.358 61.3058 126.153 62.6053 126.153 64.9878C126.153 66.0153 125.596 66.9696 124.677 67.4297C118.281 70.6323 113.854 70.6264 106.608 67.3998C105.618 66.9591 105 65.965 105 64.8815Z" fill="#0A0200"/>
<path fill-rule="evenodd" clip-rule="evenodd" d="M125.45 66.8414C125.235 67.0799 124.975 67.2807 124.677 67.4298C121.589 68.9762 118.96 69.7745 116.251 69.8234C116.238 69.6804 116.232 69.5357 116.232 69.3895C116.232 66.6498 118.453 64.4288 121.193 64.4288C123.001 64.4288 124.583 65.3961 125.45 66.8414Z" fill="#BF8C89"/>
<circle cx="122.996" cy="55.9959" r="2.99595" fill="#221B1B"/>
<path d="M55.5 76.4864L25.9769 76.4865L20.7071 46.2236L9.37504 45.2194" stroke="#EAA5C2" stroke-width="18.1142" stroke-linecap="round"/>
<circle cx="113" cy="81" r="7" fill="#EAA5C2"/>
<circle cx="45" cy="53" r="7" fill="#F7B2CF"/>
</svg>
