<svg width="1322" height="465" viewBox="0 0 1322 465" fill="none" xmlns="http://www.w3.org/2000/svg">
<path d="M0 189H1322V402C1322 436.794 1293.79 465 1259 465H63C28.206 465 0 436.794 0 402V189Z" fill="#AA6B27"/>
<ellipse cx="399.5" cy="244.5" rx="78.5" ry="12.5" fill="#91581A"/>
<rect y="146" width="1322" height="43" fill="#9FD474"/>
<path d="M356.588 33.4431C350.403 22.4614 357.231 7.72046 369.834 7.72046V7.72046C374.164 7.72046 378.314 9.58744 381.023 12.9654C396.275 31.9807 401.43 46.8183 402.337 67.959C402.743 77.4112 394.815 84.9246 385.354 84.9246V84.9246C375.127 84.9246 367.355 76.1747 366.587 65.9762C365.698 54.1729 362.606 44.1298 356.588 33.4431Z" fill="#F7B2CF"/>
<path d="M396.241 25.8055C390.191 14.5691 397.439 0 410.201 0V0C415.012 0 419.592 2.21317 422.391 6.12565C437.891 27.7856 442.871 44.6249 443.575 69.1352C443.849 78.641 435.935 86.2113 426.425 86.2113V86.2113C416.228 86.2113 408.378 77.5436 407.894 67.3573C407.17 52.0779 403.641 39.5488 396.241 25.8055Z" fill="#F7B2CF"/>
<path d="M351.021 95.2184C351.021 66.7926 374.065 43.749 402.491 43.749H403.777C432.203 43.749 455.247 66.7927 455.247 95.2184V163.415C455.247 187.577 435.66 207.164 411.498 207.164H394.77C370.608 207.164 351.021 187.577 351.021 163.415V95.2184Z" fill="#F7B2CF"/>
<circle cx="379.775" cy="89.2301" r="9.45255" fill="white"/>
<circle cx="379.425" cy="89.5803" r="4.90132" fill="black"/>
<circle cx="419.664" cy="89.2301" r="9.45255" fill="white"/>
<circle cx="419.314" cy="89.5803" r="4.90132" fill="black"/>
<path d="M393.484 118.166C393.484 113.593 398.824 111.053 402.833 113.254C410.951 117.712 417.421 117.626 424.933 113.48C428.965 111.256 434.367 113.767 434.367 118.372V118.372C434.367 120.358 433.29 122.202 431.514 123.091C419.152 129.281 410.596 129.27 396.591 123.033C394.679 122.182 393.484 120.26 393.484 118.166V118.166Z" fill="#0A0200"/>
<path fill-rule="evenodd" clip-rule="evenodd" d="M433.007 121.954C432.591 122.415 432.09 122.803 431.514 123.091C425.546 126.08 420.464 127.623 415.228 127.718C415.204 127.441 415.192 127.161 415.192 126.879C415.192 121.584 419.484 117.291 424.779 117.291C428.274 117.291 431.332 119.161 433.007 121.954Z" fill="#BF8C89"/>
<circle cx="400.561" cy="101.009" r="5.79031" fill="#221B1B"/>
<path d="M434.164 185.541V228.952H449.568" stroke="#F7B2CF" stroke-width="35.0095" stroke-linecap="round"/>
<path d="M374.193 185.541V228.952H358.789" stroke="#F7B2CF" stroke-width="35.0095" stroke-linecap="round"/>
<circle cx="335.581" cy="122.24" r="11.5806" fill="#F7B2CF"/>
<circle cx="471.974" cy="145.401" r="11.5806" fill="#F7B2CF"/>
<ellipse cx="187.5" cy="331" rx="46.5" ry="16" fill="#91581A"/>
<path d="M163 317.842C163 304.675 173.832 294 187 294V294C200.168 294 211 304.675 211 317.842V330C211 335.523 206.523 340 201 340H173C167.477 340 163 335.523 163 330V317.842Z" fill="#FCA112"/>
<path d="M197.205 291.95C192.564 299.867 181.093 299.79 176.558 291.813L166.353 273.863C161.817 265.885 167.618 255.989 176.795 256.05L197.443 256.187C206.619 256.248 212.289 266.22 207.648 274.137L197.205 291.95Z" fill="#7CA65A"/>
<line x1="182" y1="317.5" x2="211" y2="317.5" stroke="#D0830A" stroke-width="5"/>
<line x1="182" y1="328.5" x2="211" y2="328.5" stroke="#D0830A" stroke-width="5"/>
<ellipse cx="319.5" cy="360" rx="46.5" ry="16" fill="#91581A"/>
<path d="M295 346.842C295 333.675 305.832 323 319 323V323C332.168 323 343 333.675 343 346.842V359C343 364.523 338.523 369 333 369H305C299.477 369 295 364.523 295 359V346.842Z" fill="#FCA112"/>
<path d="M329.205 320.95C324.564 328.867 313.093 328.79 308.558 320.813L298.353 302.863C293.817 294.885 299.618 284.989 308.795 285.05L329.443 285.187C338.619 285.248 344.289 295.22 339.648 303.137L329.205 320.95Z" fill="#7CA65A"/>
<line x1="314" y1="346.5" x2="343" y2="346.5" stroke="#D0830A" stroke-width="5"/>
<line x1="314" y1="357.5" x2="343" y2="357.5" stroke="#D0830A" stroke-width="5"/>
<ellipse cx="445.5" cy="313" rx="46.5" ry="16" fill="#91581A"/>
<path d="M421 299.842C421 286.675 431.832 276 445 276V276C458.168 276 469 286.675 469 299.842V312C469 317.523 464.523 322 459 322H431C425.477 322 421 317.523 421 312V299.842Z" fill="#FCA112"/>
<path d="M455.205 273.95C450.564 281.867 439.093 281.79 434.558 273.813L424.353 255.863C419.817 247.885 425.618 237.989 434.795 238.05L455.443 238.187C464.619 238.248 470.289 248.22 465.648 256.137L455.205 273.95Z" fill="#7CA65A"/>
<line x1="440" y1="299.5" x2="469" y2="299.5" stroke="#D0830A" stroke-width="5"/>
<line x1="440" y1="310.5" x2="469" y2="310.5" stroke="#D0830A" stroke-width="5"/>
<line x1="323.795" y1="90.8737" x2="341.645" y2="143.29" stroke="#86BB14" stroke-width="3.69149" stroke-linecap="round"/>
<path d="M314.507 73.3439C314.457 69.7683 319.011 68.2172 321.154 71.0805L323.452 74.1526C324.41 75.4331 326.084 75.951 327.598 75.4354L331.23 74.1986C334.615 73.0458 337.498 76.8983 335.437 79.8206L333.225 82.9561C332.304 84.263 332.328 86.0148 333.286 87.2953L335.585 90.3674C337.727 93.2307 334.954 97.1626 331.538 96.1055L327.873 94.9713C326.345 94.4985 324.686 95.0632 323.765 96.3702L321.553 99.5057C319.492 102.428 314.896 101.006 314.845 97.43L314.792 93.5934C314.769 91.9943 313.719 90.5916 312.192 90.1188L308.526 88.9846C305.11 87.9274 305.042 83.1164 308.428 81.9636L312.06 80.7268C313.574 80.2113 314.583 78.7796 314.561 77.1805L314.507 73.3439Z" fill="#EDC2C3"/>
<path d="M323.195 70.4177C325.072 67.6583 329.384 68.9138 329.487 72.2498L329.634 77.0207C329.68 78.5126 330.681 79.8053 332.114 80.2225L336.697 81.5569C339.902 82.49 340.04 86.9786 336.899 88.1073L332.407 89.7215C331.003 90.2263 330.083 91.5781 330.129 93.0701L330.276 97.8409C330.379 101.177 326.152 102.696 324.108 100.057L321.185 96.2839C320.271 95.104 318.701 94.6468 317.296 95.1516L312.804 96.7658C309.663 97.8945 306.913 94.3444 308.791 91.5851L311.476 87.6389C312.316 86.4049 312.265 84.7705 311.351 83.5905L308.428 79.8173C306.384 77.1788 308.91 73.4661 312.115 74.3992L316.698 75.7336C318.131 76.1509 319.67 75.5979 320.509 74.3639L323.195 70.4177Z" fill="#EDC2C3"/>
<circle cx="322.28" cy="85.2798" r="3.69149" transform="rotate(-18.8055 322.28 85.2798)" fill="#A67273"/>
</svg>
