<svg width="371" height="224" viewBox="0 0 371 224" fill="none" xmlns="http://www.w3.org/2000/svg">
<ellipse cx="200.66" cy="215.826" rx="34.6599" ry="7.82643" fill="#DDDDDD"/>
<ellipse cx="335.945" cy="215.826" rx="34.6599" ry="7.82643" fill="#DDDDDD"/>
<ellipse cx="90.1447" cy="206.395" rx="22.1447" ry="9.39474" fill="#DDDDDD"/>
<ellipse cx="22.1447" cy="179.395" rx="22.1447" ry="9.39474" fill="#DDDDDD"/>
<path d="M222.114 29.8785C216.589 20.0673 222.689 6.89752 233.949 6.89752C237.818 6.89752 241.525 8.56551 243.945 11.5834C257.572 28.572 262.177 41.8281 262.988 60.7155C263.35 69.1603 256.267 75.8728 247.815 75.8728C238.677 75.8728 231.734 68.0555 231.048 58.944C230.254 48.3988 227.491 39.4261 222.114 29.8785Z" fill="#F7B2CF"/>
<path d="M257.541 23.055C252.136 13.0162 258.612 0 270.013 0C274.312 0 278.403 1.97727 280.904 5.47274C294.752 24.8241 299.201 39.8685 299.831 61.7664C300.075 70.259 293.004 77.0224 284.508 77.0224C275.398 77.0224 268.384 69.2785 267.953 60.178C267.305 46.5271 264.152 35.3335 257.541 23.055Z" fill="#F7B2CF"/>
<path d="M217.141 85.0695C217.141 59.6735 237.729 39.086 263.125 39.086H264.274C289.67 39.086 310.258 59.6735 310.258 85.0695V145.998C310.258 167.584 292.759 185.084 271.172 185.084H256.227C234.641 185.084 217.141 167.584 217.141 145.998V85.0695Z" fill="#F7B2CF"/>
<circle cx="242.83" cy="79.7195" r="8.44505" fill="white"/>
<circle cx="242.518" cy="80.0322" r="4.37891" fill="black"/>
<circle cx="278.467" cy="79.7195" r="8.44505" fill="white"/>
<circle cx="278.155" cy="80.0322" r="4.37891" fill="black"/>
<path d="M255.078 105.572C255.078 101.485 259.849 99.2162 263.431 101.183C270.683 105.165 276.464 105.088 283.175 101.385C286.777 99.3973 291.603 101.641 291.603 105.755C291.603 107.529 290.641 109.177 289.055 109.971C278.011 115.501 270.366 115.491 257.854 109.92C256.145 109.159 255.078 107.442 255.078 105.572Z" fill="#0A0200"/>
<path fill-rule="evenodd" clip-rule="evenodd" d="M290.389 108.956C290.017 109.367 289.569 109.714 289.055 109.972C283.722 112.642 279.182 114.02 274.504 114.105C274.483 113.858 274.472 113.608 274.472 113.355C274.472 108.625 278.307 104.79 283.038 104.79C286.16 104.79 288.892 106.46 290.389 108.956Z" fill="#BF8C89"/>
<circle cx="261.4" cy="90.2427" r="5.17315" fill="#221B1B"/>
<path d="M296.463 166.372L327.962 189L335.992 177.823" stroke="#F7B2CF" stroke-width="31.278" stroke-linecap="round"/>
<path d="M242.875 166.372L211.376 189L203.346 177.823" stroke="#F7B2CF" stroke-width="31.278" stroke-linecap="round"/>
<circle cx="203.346" cy="109.211" r="10.3463" fill="#F7B2CF"/>
<circle cx="325.203" cy="129.903" r="10.3463" fill="#F7B2CF"/>
</svg>
