<svg width="272" height="272" viewBox="0 0 272 272" fill="none" xmlns="http://www.w3.org/2000/svg">
<path d="M118.657 12.9555C124.607 -3.15455 147.393 -3.15455 153.343 12.9555V12.9555C157.763 24.9235 172.691 28.9232 182.503 20.7688V20.7688C195.711 9.79223 215.444 21.185 212.542 38.1119V38.1119C210.386 50.6866 221.313 61.6141 233.888 59.4582V59.4582C250.815 56.5563 262.208 76.2892 251.231 89.4973V89.4973C243.077 99.3094 247.076 114.237 259.044 118.657V118.657C275.155 124.607 275.155 147.393 259.044 153.343V153.343C247.076 157.763 243.077 172.691 251.231 182.503V182.503C262.208 195.711 250.815 215.444 233.888 212.542V212.542C221.313 210.386 210.386 221.313 212.542 233.888V233.888C215.444 250.815 195.711 262.208 182.503 251.231V251.231C172.691 243.077 157.763 247.076 153.343 259.044V259.044C147.393 275.155 124.607 275.155 118.657 259.044V259.044C114.237 247.076 99.3094 243.077 89.4973 251.231V251.231C76.2892 262.208 56.5563 250.815 59.4582 233.888V233.888C61.6141 221.313 50.6866 210.386 38.1118 212.542V212.542C21.185 215.444 9.79223 195.711 20.7688 182.503V182.503C28.9232 172.691 24.9235 157.763 12.9555 153.343V153.343C-3.15455 147.393 -3.15455 124.607 12.9555 118.657V118.657C24.9235 114.237 28.9232 99.3094 20.7688 89.4973V89.4973C9.79223 76.2892 21.185 56.5563 38.1118 59.4582V59.4582C50.6866 61.6141 61.6141 50.6866 59.4582 38.1118V38.1118C56.5563 21.185 76.2892 9.79223 89.4973 20.7688V20.7688C99.3094 28.9232 114.237 24.9235 118.657 12.9555V12.9555Z" fill="#C3E6F9" fill-opacity="0.24"/>
</svg>
